<svg width="37" height="27" viewBox="0 0 37 27" fill="none" xmlns="http://www.w3.org/2000/svg">
<g opacity="0.38">
<rect opacity="0.38" y="5.5" width="34" height="14" rx="7" fill="#F47F38"/>
<g filter="url(#filter0_ddd_143_2885)">
<path fill-rule="evenodd" clip-rule="evenodd" d="M24 22.5C29.5228 22.5 34 18.0228 34 12.5C34 6.97715 29.5228 2.5 24 2.5C18.4772 2.5 14 6.97715 14 12.5C14 18.0228 18.4772 22.5 24 22.5Z" fill="#212121" fill-opacity="0.08"/>
</g>
<path fill-rule="evenodd" clip-rule="evenodd" d="M24 22.5C29.5228 22.5 34 18.0228 34 12.5C34 6.97715 29.5228 2.5 24 2.5C18.4772 2.5 14 6.97715 14 12.5C14 18.0228 18.4772 22.5 24 22.5Z" fill="#F47F38"/>
</g>
<defs>
<filter id="filter0_ddd_143_2885" x="11" y="0.5" width="26" height="26" filterUnits="userSpaceOnUse" color-interpolation-filters="sRGB">
<feFlood flood-opacity="0" result="BackgroundImageFix"/>
<feColorMatrix in="SourceAlpha" type="matrix" values="0 0 0 0 0 0 0 0 0 0 0 0 0 0 0 0 0 0 127 0" result="hardAlpha"/>
<feOffset dy="1"/>
<feGaussianBlur stdDeviation="1.5"/>
<feColorMatrix type="matrix" values="0 0 0 0 0 0 0 0 0 0 0 0 0 0 0 0 0 0 0.2 0"/>
<feBlend mode="normal" in2="BackgroundImageFix" result="effect1_dropShadow_143_2885"/>
<feColorMatrix in="SourceAlpha" type="matrix" values="0 0 0 0 0 0 0 0 0 0 0 0 0 0 0 0 0 0 127 0" result="hardAlpha"/>
<feOffset dy="2"/>
<feGaussianBlur stdDeviation="0.5"/>
<feColorMatrix type="matrix" values="0 0 0 0 0 0 0 0 0 0 0 0 0 0 0 0 0 0 0.12 0"/>
<feBlend mode="normal" in2="effect1_dropShadow_143_2885" result="effect2_dropShadow_143_2885"/>
<feColorMatrix in="SourceAlpha" type="matrix" values="0 0 0 0 0 0 0 0 0 0 0 0 0 0 0 0 0 0 127 0" result="hardAlpha"/>
<feOffset dy="1"/>
<feGaussianBlur stdDeviation="0.5"/>
<feColorMatrix type="matrix" values="0 0 0 0 0 0 0 0 0 0 0 0 0 0 0 0 0 0 0.14 0"/>
<feBlend mode="normal" in2="effect2_dropShadow_143_2885" result="effect3_dropShadow_143_2885"/>
<feBlend mode="normal" in="SourceGraphic" in2="effect3_dropShadow_143_2885" result="shape"/>
</filter>
</defs>
</svg>
