<svg width="24" height="25" viewBox="0 0 24 25" fill="none" xmlns="http://www.w3.org/2000/svg">
<path d="M19.5 4L18 2.5L16.5 4L15 2.5L13.5 4L12 2.5L10.5 4L9 2.5L7.5 4L6 2.5V16.5H3V19.5C3 21.16 4.34 22.5 6 22.5H18C19.66 22.5 21 21.16 21 19.5V2.5L19.5 4ZM15 20.5H6C5.45 20.5 5 20.05 5 19.5V18.5H15V20.5ZM19 19.5C19 20.05 18.55 20.5 18 20.5C17.45 20.5 17 20.05 17 19.5V16.5H8V5.5H19V19.5Z" fill="current"/>
<path d="M9 7.5H15V9.5H9V7.5ZM16 7.5H18V9.5H16V7.5ZM9 10.5H15V12.5H9V10.5ZM16 10.5H18V12.5H16V10.5Z" fill="current"/>
</svg>
