<svg width="18" height="20" viewBox="0 0 18 20" fill="none" xmlns="http://www.w3.org/2000/svg">
<path d="M9 20.0001C9.66304 20.0001 10.2989 19.7367 10.7678 19.2679C11.2366 18.799 11.5 18.1632 11.5 17.5001H6.5C6.5 18.1632 6.76339 18.799 7.23223 19.2679C7.70107 19.7367 8.33696 20.0001 9 20.0001ZM9 2.39762L8.00375 2.59887C6.8737 2.82912 5.85791 3.44275 5.12831 4.33589C4.39872 5.22904 4.00012 6.34685 4 7.50012C4 8.28512 3.8325 10.2464 3.42625 12.1776C3.22625 13.1364 2.95625 14.1351 2.5975 15.0001H15.4025C15.0437 14.1351 14.775 13.1376 14.5737 12.1776C14.1675 10.2464 14 8.28512 14 7.50012C13.9996 6.34706 13.6009 5.22955 12.8713 4.33666C12.1417 3.44377 11.1261 2.83032 9.99625 2.60012L9 2.39637V2.39762ZM16.775 15.0001C17.0538 15.5589 17.3762 16.0014 17.75 16.2501H0.25C0.62375 16.0014 0.94625 15.5589 1.225 15.0001C2.35 12.7501 2.75 8.60012 2.75 7.50012C2.75 4.47512 4.9 1.95012 7.75625 1.37387C7.7388 1.20006 7.75798 1.02452 7.81254 0.858584C7.8671 0.692642 7.95584 0.539979 8.07303 0.41044C8.19022 0.2809 8.33325 0.17736 8.49292 0.106498C8.65258 0.0356353 8.82532 -0.000976562 9 -0.000976562C9.17468 -0.000976563 9.34742 0.0356353 9.50709 0.106498C9.66675 0.17736 9.80978 0.2809 9.92697 0.41044C10.0442 0.539979 10.1329 0.692642 10.1875 0.858584C10.242 1.02452 10.2612 1.20006 10.2437 1.37387C11.6566 1.66124 12.9267 2.42807 13.839 3.54449C14.7514 4.66092 15.2498 6.05833 15.25 7.50012C15.25 8.60012 15.65 12.7501 16.775 15.0001Z" fill="#828282"/>
</svg>
