<svg width="37" height="32" viewBox="0 0 37 32" fill="none" xmlns="http://www.w3.org/2000/svg">
<path d="M0 4.82617C0 3.66585 0.460936 2.55305 1.28141 1.73258C2.10188 0.912108 3.21468 0.451172 4.375 0.451172H30.625C31.7853 0.451172 32.8981 0.912108 33.7186 1.73258C34.5391 2.55305 35 3.66585 35 4.82617V10.6799C34.7723 10.5635 34.5377 10.4613 34.2975 10.3737L34.2725 10.3637L33.9788 10.2662L33.0575 9.98867C32.8747 9.93332 32.6884 9.88989 32.5 9.85867V4.82617C32.5 4.32889 32.3025 3.85198 31.9508 3.50035C31.5992 3.14872 31.1223 2.95117 30.625 2.95117H4.375C3.87772 2.95117 3.40081 3.14872 3.04917 3.50035C2.69754 3.85198 2.5 4.32889 2.5 4.82617V21.0762C2.5 21.5735 2.69754 22.0504 3.04917 22.402C3.40081 22.7536 3.87772 22.9512 4.375 22.9512H10V20.4512C10 19.7881 10.2634 19.1522 10.7322 18.6834C11.2011 18.2146 11.837 17.9512 12.5 17.9512H22.5C23.163 17.9512 23.7989 18.2146 24.2678 18.6834C24.7366 19.1522 25 19.7881 25 20.4512V21.5499C24.467 21.549 23.9399 21.6617 23.4539 21.8805C22.9678 22.0992 22.534 22.4191 22.1813 22.8187L22.1513 22.8537L21.98 23.0687L20.26 25.4512H4.375C3.21468 25.4512 2.10188 24.9902 1.28141 24.1698C0.460936 23.3493 0 22.2365 0 21.0762V4.82617ZM22.5 10.4512C22.5 11.7773 21.9732 13.049 21.0355 13.9867C20.0979 14.9244 18.8261 15.4512 17.5 15.4512C16.1739 15.4512 14.9021 14.9244 13.9645 13.9867C13.0268 13.049 12.5 11.7773 12.5 10.4512C12.5 9.12509 13.0268 7.85332 13.9645 6.91564C14.9021 5.97796 16.1739 5.45117 17.5 5.45117C18.8261 5.45117 20.0979 5.97796 21.0355 6.91564C21.9732 7.85332 22.5 9.12509 22.5 10.4512ZM29.6075 12.9662C29.8843 12.4664 30.3238 12.0765 30.8531 11.8613C31.3823 11.6462 31.9693 11.6188 32.5163 11.7837L33.4125 12.0537L33.6525 12.1337C34.3949 12.4053 35.0499 12.873 35.5477 13.4871C36.0456 14.1011 36.3678 14.8386 36.48 15.6212C36.8512 18.2062 36.0212 21.2287 34.02 24.6949C32.0238 28.1524 29.8263 30.3799 27.4075 31.3549C26.6303 31.6681 25.7796 31.7516 24.9564 31.5954C24.1332 31.4392 23.3721 31.0498 22.7638 30.4737L22.0863 29.8312L21.9338 29.6737C21.557 29.2486 21.3362 28.7078 21.3078 28.1405C21.2794 27.5731 21.4451 27.013 21.7775 26.5524L23.4737 24.2024L23.5875 24.0599C23.8257 23.79 24.1367 23.5943 24.4831 23.4963C24.8296 23.3984 25.1969 23.4022 25.5413 23.5074L28.105 24.2912L28.1713 24.3037H28.225C28.5312 24.2699 29.1537 23.6512 29.9187 22.3262C30.7687 20.8537 30.9438 19.9924 30.71 19.7699L29.4062 18.5549L29.24 18.3887C28.825 17.9389 28.5513 17.377 28.4531 16.773C28.3548 16.1689 28.4364 15.5493 28.6875 14.9912L29.515 13.1524L29.6075 12.9662Z" fill="black"/>
</svg>
