<svg width="42" height="43" viewBox="0 0 42 43" fill="none" xmlns="http://www.w3.org/2000/svg">
<path d="M20.9998 0.666992C9.49984 0.666992 0.166504 10.0003 0.166504 21.5003C0.166504 33.0003 9.49984 42.3337 20.9998 42.3337C32.4998 42.3337 41.8332 33.0003 41.8332 21.5003C41.8332 10.0003 32.4998 0.666992 20.9998 0.666992ZM20.9998 38.167C11.7915 38.167 4.33317 30.7087 4.33317 21.5003C4.33317 17.6462 5.64567 14.1045 7.854 11.292L31.2082 34.6462C28.298 36.9341 24.7017 38.1745 20.9998 38.167ZM34.1457 31.7087L10.7915 8.35449C13.7016 6.06651 17.298 4.82614 20.9998 4.83366C30.2082 4.83366 37.6665 12.292 37.6665 21.5003C37.6665 25.3545 36.354 28.8962 34.1457 31.7087Z" fill="#E0E0E0"/>
</svg>
