<svg width="18" height="15" viewBox="0 0 18 15" fill="none" xmlns="http://www.w3.org/2000/svg">
<path d="M0.666504 5.41667V0.833333C0.666504 0.61232 0.754301 0.400358 0.910582 0.244078C1.06686 0.0877973 1.27882 0 1.49984 0H16.4998C16.7209 0 16.9328 0.0877973 17.0891 0.244078C17.2454 0.400358 17.3332 0.61232 17.3332 0.833333V5.41667C16.7806 5.41667 16.2507 5.63616 15.86 6.02686C15.4693 6.41756 15.2498 6.94747 15.2498 7.5C15.2498 8.05253 15.4693 8.58244 15.86 8.97314C16.2507 9.36384 16.7806 9.58333 17.3332 9.58333V14.1667C17.3332 14.3877 17.2454 14.5996 17.0891 14.7559C16.9328 14.9122 16.7209 15 16.4998 15H1.49984C1.27882 15 1.06686 14.9122 0.910582 14.7559C0.754301 14.5996 0.666504 14.3877 0.666504 14.1667V9.58333C1.21904 9.58333 1.74894 9.36384 2.13964 8.97314C2.53034 8.58244 2.74984 8.05253 2.74984 7.5C2.74984 6.94747 2.53034 6.41756 2.13964 6.02686C1.74894 5.63616 1.21904 5.41667 0.666504 5.41667ZM10.6665 1.66667H2.33317V4.14C2.95918 4.45025 3.48606 4.92921 3.85442 5.52288C4.22278 6.11656 4.41797 6.80133 4.41797 7.5C4.41797 8.19867 4.22278 8.88344 3.85442 9.47712C3.48606 10.0708 2.95918 10.5498 2.33317 10.86V13.3333H10.6665V1.66667ZM12.3332 1.66667V13.3333H15.6665V10.86C15.0405 10.5498 14.5136 10.0708 14.1453 9.47712C13.7769 8.88344 13.5817 8.19867 13.5817 7.5C13.5817 6.80133 13.7769 6.11656 14.1453 5.52288C14.5136 4.92921 15.0405 4.45025 15.6665 4.14V1.66667H12.3332Z" fill="#F47F38"/>
</svg>
