<svg width="20" height="21" viewBox="0 0 20 21" fill="none" xmlns="http://www.w3.org/2000/svg">
<path d="M10.0002 5.41634C10.23 5.41634 10.4575 5.46161 10.6699 5.54955C10.8822 5.6375 11.0751 5.7664 11.2376 5.9289C11.4001 6.09141 11.529 6.28433 11.617 6.49664C11.7049 6.70896 11.7502 6.93653 11.7502 7.16634C11.7502 7.39615 11.7049 7.62372 11.617 7.83604C11.529 8.04836 11.4001 8.24128 11.2376 8.40378C11.0751 8.56628 10.8822 8.69518 10.6699 8.78313C10.4575 8.87108 10.23 8.91634 10.0002 8.91634C9.53603 8.91634 9.09091 8.73197 8.76273 8.40378C8.43454 8.07559 8.25016 7.63047 8.25016 7.16634C8.25016 6.70221 8.43454 6.25709 8.76273 5.9289C9.09091 5.60072 9.53603 5.41634 10.0002 5.41634ZM10.0002 12.9163C12.4752 12.9163 15.0835 14.133 15.0835 14.6663V15.583H4.91683V14.6663C4.91683 14.133 7.52516 12.9163 10.0002 12.9163ZM10.0002 3.83301C8.1585 3.83301 6.66683 5.32467 6.66683 7.16634C6.66683 9.00801 8.1585 10.4997 10.0002 10.4997C11.8418 10.4997 13.3335 9.00801 13.3335 7.16634C13.3335 5.32467 11.8418 3.83301 10.0002 3.83301ZM10.0002 11.333C7.77516 11.333 3.3335 12.4497 3.3335 14.6663V17.1663H16.6668V14.6663C16.6668 12.4497 12.2252 11.333 10.0002 11.333Z" fill="current"/>
</svg>
