<svg width="24" height="25" viewBox="0 0 24 25" fill="none" xmlns="http://www.w3.org/2000/svg">
<g clip-path="url(#clip0_198_3615)">
<path d="M12.79 21.5L3 11.71V13.71C3 14.24 3.21 14.75 3.59 15.12L11.38 22.91C12.16 23.69 13.43 23.69 14.21 22.91L20.42 16.7C21.2 15.92 21.2 14.65 20.42 13.87L12.79 21.5Z" fill="current"/>
<path d="M11.38 17.91C11.77 18.3 12.28 18.5 12.79 18.5C13.3 18.5 13.81 18.3 14.2 17.91L20.41 11.7C21.19 10.92 21.19 9.65 20.41 8.87L12.62 1.08C12.25 0.71 11.74 0.5 11.21 0.5H5C3.9 0.5 3 1.4 3 2.5V8.71C3 9.24 3.21 9.75 3.59 10.12L11.38 17.91ZM5 2.5H11.21L19 10.29L12.79 16.5L5 8.71V2.5Z" fill="current"/>
<path d="M7.25 6C7.94036 6 8.5 5.44036 8.5 4.75C8.5 4.05964 7.94036 3.5 7.25 3.5C6.55964 3.5 6 4.05964 6 4.75C6 5.44036 6.55964 6 7.25 6Z" fill="current"/>
</g>
<defs>
<clipPath id="clip0_198_3615">
<rect width="24" height="24" fill="white" transform="translate(0 0.5)"/>
</clipPath>
</defs>
</svg>
