<svg width="41" height="41" viewBox="0 0 41 41" fill="none" xmlns="http://www.w3.org/2000/svg">
<path d="M20.4999 4.28516C11.3099 4.28516 3.83325 11.7618 3.83325 20.9518C3.83325 30.1418 11.3099 37.6185 20.4999 37.6185C29.6899 37.6185 37.1666 30.1418 37.1666 20.9518C37.1666 11.7618 29.6899 4.28516 20.4999 4.28516ZM20.4999 34.2852C13.1483 34.2852 7.16659 28.3035 7.16659 20.9518C7.16659 13.6002 13.1483 7.61849 20.4999 7.61849C27.8516 7.61849 33.8333 13.6002 33.8333 20.9518C33.8333 28.3035 27.8516 34.2852 20.4999 34.2852Z" fill="black"/>
<path d="M25.2135 25.6644C24.2935 26.5868 23.1228 27.2185 21.8468 27.4811C20.9579 27.6594 20.0424 27.6594 19.1535 27.4811C18.726 27.3923 18.3079 27.2628 17.9051 27.0944C17.5097 26.9255 17.1308 26.7202 16.7735 26.4811C16.0649 25.998 15.4532 25.3863 14.9701 24.6777L12.2068 26.5394C12.5651 27.0711 12.9768 27.5711 13.4285 28.0211C14.3558 28.9516 15.4577 29.69 16.6709 30.1939C17.8841 30.6978 19.1849 30.9574 20.4986 30.9577C21.8123 30.958 23.1132 30.699 24.3266 30.1957C25.5401 29.6923 26.6423 28.9545 27.5701 28.0244C28.0235 27.5727 28.4368 27.0727 28.7935 26.5394L26.0301 24.6777C25.7918 25.0294 25.5185 25.3611 25.2135 25.6644Z" fill="black"/>
<path d="M14.6667 20.9512C16.0475 20.9512 17.1667 19.8319 17.1667 18.4512C17.1667 17.0705 16.0475 15.9512 14.6667 15.9512C13.286 15.9512 12.1667 17.0705 12.1667 18.4512C12.1667 19.8319 13.286 20.9512 14.6667 20.9512Z" fill="black"/>
<path d="M26.3334 17.6172C23.0001 17.6172 22.1667 20.9505 22.1667 20.9505H30.5001C30.5001 20.9505 29.6651 17.6172 26.3334 17.6172Z" fill="black"/>
</svg>
