<svg width="15" height="19" viewBox="0 0 15 19" fill="none" xmlns="http://www.w3.org/2000/svg">
<path d="M2.10651 5.7302C1.84389 4.00045 3.06351 2.4467 4.92664 1.87745C5.25727 1.77636 5.61399 1.80513 5.92414 1.95791C6.23429 2.11068 6.47452 2.37596 6.59589 2.6997L7.19401 4.2947C7.2903 4.55129 7.30771 4.8308 7.24401 5.09736C7.18031 5.36392 7.03841 5.60536 6.83651 5.7907L5.05726 7.42007C4.96956 7.50055 4.90421 7.60239 4.86758 7.71565C4.83095 7.82891 4.8243 7.94972 4.84826 8.06632L4.86476 8.13782L4.90739 8.31657C5.12866 9.18508 5.46581 10.0199 5.90976 10.7984C6.39337 11.6258 6.99352 12.3792 7.69176 13.0356L7.74676 13.0851C7.83559 13.1639 7.94333 13.2184 8.05947 13.2432C8.17562 13.268 8.29622 13.2623 8.40951 13.2267L10.7099 12.5021C10.9713 12.42 11.2513 12.4179 11.5139 12.496C11.7766 12.5742 12.0099 12.729 12.1839 12.9407L13.2729 14.2621C13.7266 14.8121 13.6716 15.6206 13.1505 16.1059C11.7246 17.4356 9.76389 17.7078 8.39989 16.6119C6.72793 15.2633 5.31845 13.6184 4.24189 11.7596C3.15659 9.90214 2.43165 7.85654 2.10514 5.7302H2.10651ZM6.29064 8.15707L7.76464 6.80407C8.16866 6.43356 8.45273 5.95075 8.58038 5.41762C8.70802 4.8845 8.67342 4.32539 8.48101 3.81207L7.88426 2.21707C7.63999 1.56566 7.15652 1.0319 6.53238 0.724562C5.90825 0.41722 5.19041 0.359422 4.52514 0.562946C2.21101 1.27107 0.35339 3.34595 0.746639 5.93782C1.02164 7.74732 1.65551 10.0491 3.05389 12.4526C4.21537 14.4569 5.73577 16.2304 7.53914 17.6844C9.58514 19.3276 12.3159 18.7666 14.0896 17.1138C15.1429 16.1321 15.2501 14.5013 14.3358 13.3903L13.2468 12.0676C12.8984 11.6447 12.4317 11.3356 11.9064 11.1798C11.3812 11.024 10.8214 11.0286 10.2988 11.1931L8.38889 11.7939C7.89577 11.2855 7.46384 10.7211 7.10189 10.1123C6.75226 9.49682 6.47979 8.84058 6.29064 8.15845V8.15707Z" fill="current"/>
</svg>
