<svg width="11" height="13" viewBox="0 0 11 13" fill="none" xmlns="http://www.w3.org/2000/svg">
<path d="M4.57599 0.83338C4.61846 0.789902 4.6692 0.755371 4.72523 0.731825C4.78125 0.708279 4.84143 0.696196 4.9022 0.69629C4.96298 0.696383 5.02312 0.70865 5.07907 0.732368C5.13503 0.756085 5.18566 0.790772 5.22799 0.83438L10.41 6.15138C10.501 6.24475 10.5519 6.36999 10.5519 6.50038C10.5519 6.63077 10.501 6.75601 10.41 6.84938L5.22799 12.1664C5.1856 12.2099 5.13491 12.2445 5.07892 12.2682C5.02293 12.2918 4.96277 12.304 4.90199 12.304C4.84122 12.304 4.78106 12.2918 4.72507 12.2682C4.66908 12.2445 4.61839 12.2099 4.57599 12.1664C4.48877 12.0771 4.43994 11.9572 4.43994 11.8324C4.43994 11.7076 4.48877 11.5877 4.57599 11.4984L9.44899 6.50038L4.57599 1.50038C4.48907 1.41113 4.44043 1.29147 4.44043 1.16688C4.44043 1.04229 4.48907 0.922632 4.57599 0.83338ZM0.575994 0.83338C0.618457 0.789902 0.6692 0.755371 0.725227 0.731825C0.781255 0.708279 0.841431 0.696196 0.902205 0.69629C0.962979 0.696383 1.02312 0.70865 1.07907 0.732368C1.13503 0.756085 1.18566 0.790772 1.22799 0.83438L6.40999 6.15138C6.50101 6.24475 6.55194 6.36999 6.55194 6.50038C6.55194 6.63077 6.50101 6.75601 6.40999 6.84938L1.22799 12.1664C1.1856 12.2099 1.13491 12.2445 1.07892 12.2682C1.02293 12.2918 0.962768 12.304 0.901994 12.304C0.84122 12.304 0.781062 12.2918 0.725071 12.2682C0.66908 12.2445 0.61839 12.2099 0.575994 12.1664C0.488772 12.0771 0.439941 11.9572 0.439941 11.8324C0.439941 11.7076 0.488772 11.5877 0.575994 11.4984L5.44899 6.50038L0.575994 1.50038C0.489071 1.41113 0.440429 1.29147 0.440429 1.16688C0.440429 1.04229 0.489071 0.922632 0.575994 0.83338Z" fill="current"/>
</svg>
