<svg width="41" height="41" viewBox="0 0 41 41" fill="none" xmlns="http://www.w3.org/2000/svg">
<path d="M13 38.4512H5.5C4.83696 38.4512 4.20107 38.1878 3.73223 37.7189C3.26339 37.2501 3 36.6142 3 35.9512V20.9512C3 20.2881 3.26339 19.6522 3.73223 19.1834C4.20107 18.7146 4.83696 18.4512 5.5 18.4512H13C13.663 18.4512 14.2989 18.7146 14.7678 19.1834C15.2366 19.6522 15.5 20.2881 15.5 20.9512V35.9512C15.5 36.6142 15.2366 37.2501 14.7678 37.7189C14.2989 38.1878 13.663 38.4512 13 38.4512ZM5.5 20.9512V35.9512H13V20.9512H5.5Z" fill="black"/>
<path d="M35.5 5.95117H8C7.33696 5.95117 6.70107 6.21456 6.23223 6.6834C5.76339 7.15225 5.5 7.78813 5.5 8.45117V15.9512H8V8.45117H35.5V25.9512H18V28.4512H20.5V33.4512H18V35.9512H29.25V33.4512H23V28.4512H35.5C36.163 28.4512 36.7989 28.1878 37.2678 27.7189C37.7366 27.2501 38 26.6142 38 25.9512V8.45117C38 7.78813 37.7366 7.15225 37.2678 6.6834C36.7989 6.21456 36.163 5.95117 35.5 5.95117Z" fill="black"/>
</svg>
