<svg width="20" height="21" viewBox="0 0 20 21" fill="none" xmlns="http://www.w3.org/2000/svg">
<path d="M0.633923 16.418C0.703353 16.7196 0.850863 16.9976 1.06166 17.2242C1.27245 17.4508 1.53912 17.618 1.83492 17.709L2.01492 18.5H1.99992V20.5H17.9999V18.5H4.68292C4.69605 18.4076 4.69369 18.3136 4.67592 18.222L4.47992 17.359L14.8369 15.003L15.0329 15.866C15.0851 16.095 15.2261 16.2938 15.4249 16.4189C15.6236 16.544 15.8639 16.585 16.0929 16.533L16.9559 16.336C17.0694 16.3103 17.1766 16.2624 17.2715 16.1952C17.3665 16.128 17.4472 16.0427 17.5092 15.9443C17.5711 15.8458 17.613 15.7361 17.6326 15.6215C17.6521 15.5068 17.6488 15.3894 17.6229 15.276L17.3719 14.173C17.8179 13.757 18.0419 13.127 17.8969 12.49L17.3069 9.9C17.2353 9.58797 17.08 9.30137 16.8576 9.07107C16.6352 8.84076 16.3543 8.67548 16.0449 8.593L13.9959 5.215C13.6938 4.71869 13.2434 4.32979 12.7084 4.10318C12.1733 3.87657 11.5806 3.82369 11.0139 3.952L3.14592 5.742C2.57861 5.87051 2.06617 6.17442 1.68132 6.61061C1.29647 7.04679 1.05876 7.59309 1.00192 8.172L0.614923 12.104C0.372191 12.3124 0.190861 12.5831 0.0904304 12.8868C-0.0100007 13.1906 -0.0257338 13.516 0.0449229 13.828L0.633923 16.418ZM3.65392 15.73C3.48393 15.7687 3.30796 15.7736 3.13608 15.7444C2.9642 15.7151 2.79977 15.6523 2.65217 15.5594C2.50457 15.4666 2.3767 15.3457 2.27585 15.2034C2.17501 15.0612 2.10316 14.9005 2.06442 14.7305C2.02568 14.5605 2.02081 14.3845 2.05007 14.2127C2.07933 14.0408 2.14216 13.8763 2.23498 13.7287C2.32779 13.5811 2.44876 13.4533 2.59099 13.3524C2.73323 13.2516 2.89393 13.1797 3.06392 13.141C3.40725 13.0628 3.76759 13.1241 4.06568 13.3116C4.36376 13.499 4.57518 13.7972 4.65342 14.1405C4.73166 14.4838 4.67031 14.8442 4.48287 15.1423C4.29543 15.4403 3.99725 15.6518 3.65392 15.73ZM14.8759 13.178C14.703 13.2255 14.5223 13.2375 14.3446 13.2133C14.1669 13.1891 13.996 13.1292 13.8421 13.0371C13.6882 12.945 13.5546 12.8228 13.4493 12.6777C13.3439 12.5326 13.2691 12.3676 13.2292 12.1928C13.1893 12.018 13.1853 11.8369 13.2173 11.6604C13.2493 11.484 13.3167 11.3159 13.4154 11.1662C13.5142 11.0165 13.6422 10.8884 13.7918 10.7895C13.9414 10.6907 14.1095 10.6231 14.2859 10.591C14.6225 10.5297 14.9697 10.6006 15.2552 10.789C15.5408 10.9774 15.7426 11.2687 15.8187 11.6022C15.8948 11.9357 15.8392 12.2857 15.6635 12.5793C15.4879 12.8729 15.2058 13.0873 14.8759 13.178ZM3.58892 7.692L11.4579 5.901C11.6156 5.86537 11.7805 5.88008 11.9294 5.94304C12.0782 6.006 12.2036 6.11405 12.2879 6.252L13.8729 8.865L13.3069 8.994L3.26092 11.281L2.69292 11.41L2.99192 8.368C3.00802 8.20697 3.07432 8.05506 3.18144 7.93376C3.28857 7.81245 3.43111 7.72788 3.58892 7.692ZM16.4049 2.5L14.9999 0.5L14.4999 3.5L16.9999 7.5L19.9999 8.5L17.9999 5.961L19.9999 5.028L17.9999 4.095L19.9999 0.5L16.4049 2.5Z" fill="current"/>
</svg>
