<svg width="24" height="25" viewBox="0 0 24 25" fill="none" xmlns="http://www.w3.org/2000/svg">
<g clip-path="url(#clip0_198_3998)">
<path d="M24 7.85522C24 7.75844 23.9883 7.65764 23.9648 7.5528C23.9414 7.44796 23.9141 7.35118 23.8828 7.26247C23.8516 7.17376 23.8086 7.08909 23.7539 7.00844C23.6992 6.9278 23.6367 6.85118 23.5664 6.7786C23.4961 6.70602 23.4219 6.64151 23.3438 6.58506C23.2656 6.5286 23.1797 6.48022 23.0859 6.43989C22.9922 6.39957 22.8984 6.36731 22.8047 6.34312C22.7109 6.31893 22.6094 6.30683 22.5 6.30683H19.9453C20.6641 5.58102 21.0234 4.70199 21.0234 3.66973C21.0234 3.18586 20.9375 2.74231 20.7656 2.33909C20.5938 1.93586 20.2852 1.58909 19.8398 1.29877C19.3945 1.00844 18.8438 0.863281 18.1875 0.863281C17.9219 0.863281 17.6523 0.891507 17.3789 0.947959C17.1055 1.00441 16.8438 1.08909 16.5938 1.20199C16.3438 1.31489 16.0977 1.43989 15.8555 1.57699C15.6133 1.71409 15.3789 1.87135 15.1523 2.04877C14.9258 2.22618 14.707 2.40764 14.4961 2.59312C14.2852 2.7786 14.082 2.98022 13.8867 3.19796C13.6914 3.4157 13.5078 3.62538 13.3359 3.82699C13.1641 4.0286 12.9961 4.23828 12.832 4.45602C12.668 4.67376 12.5234 4.87135 12.3984 5.04877C12.2734 5.22618 12.1562 5.41167 12.0469 5.60522C11.7188 5.08909 11.3633 4.59312 10.9805 4.11731C10.5977 3.64151 10.1328 3.14151 9.58594 2.61731C9.03906 2.09312 8.4375 1.66973 7.78125 1.34715C7.125 1.02457 6.47656 0.863281 5.83594 0.863281C5.17969 0.863281 4.62891 1.00844 4.18359 1.29877C3.73828 1.58909 3.42969 1.93586 3.25781 2.33909C3.08594 2.74231 3 3.18586 3 3.66973C3 4.70199 3.36719 5.58909 4.10156 6.33102H1.5C1.07812 6.33102 0.722656 6.48022 0.433594 6.7786C0.144531 7.07699 0 7.44393 0 7.87941V12.5004H1.52344V22.5891C1.52344 23.0084 1.66797 23.3713 1.95703 23.6778C2.24609 23.9842 2.60156 24.1375 3.02344 24.1375H21C21.4219 24.1375 21.7773 23.9842 22.0664 23.6778C22.3555 23.3713 22.5 23.0084 22.5 22.5891V12.5004H24V7.85522ZM18.1875 2.41167C19.0781 2.41167 19.5234 2.83102 19.5234 3.66973C19.5234 4.21812 19.3438 4.69796 18.9844 5.10925C18.625 5.52054 18.1758 5.82296 17.6367 6.01651C17.0977 6.21006 16.5234 6.30683 15.9141 6.30683H13.3828C13.6797 5.85522 13.9961 5.42377 14.332 5.01247C14.668 4.60118 15.0469 4.18989 15.4688 3.7786C15.8906 3.36731 16.3398 3.03667 16.8164 2.78667C17.293 2.53667 17.75 2.41167 18.1875 2.41167ZM5.83594 2.41167C6.67969 2.41167 7.53516 2.80683 8.40234 3.59715C9.26953 4.38747 10.0391 5.2907 10.7109 6.30683H8.17969C7.22656 6.30683 6.375 6.06489 5.625 5.58102C4.875 5.09715 4.5 4.45199 4.5 3.64554C4.5 2.87135 4.89844 2.46812 5.69531 2.43586C5.74219 2.41973 5.78906 2.41167 5.83594 2.41167ZM22.5 10.952H12.75V7.85522H22.5V10.952ZM1.5 7.85522H11.25V10.952H1.5V7.85522ZM3.02344 12.5004H11.25V22.5891H3.02344V12.5004ZM21 22.5891H12.75V12.5004H21V22.5891Z" fill="current"/>
</g>
<defs>
<clipPath id="clip0_198_3998">
<rect width="24" height="24" fill="white" transform="translate(0 0.5)"/>
</clipPath>
</defs>
</svg>
